<svg width="56" height="41" viewBox="0 0 56 41" fill="none" xmlns="http://www.w3.org/2000/svg">
<path fill-rule="evenodd" clip-rule="evenodd" d="M8.77154 15.1725C12.7772 15.1725 16.0245 11.9253 16.0245 7.91958C16.0245 3.91388 12.7772 0.666626 8.77154 0.666626C4.76585 0.666626 1.51859 3.91388 1.51859 7.91958C1.51859 11.9253 4.76585 15.1725 8.77154 15.1725ZM0.919922 25.1761L11.4546 21.3346C14.5712 26.3037 20.098 29.6075 26.3963 29.6075C36.1302 29.6075 44.021 21.7166 44.021 11.9827C44.021 11.3172 43.9842 10.6602 43.9123 10.0138L54.5576 6.50343C54.9007 8.27707 55.0803 10.109 55.0803 11.9828C55.0803 27.8246 42.2381 40.6668 26.3964 40.6668C15.3117 40.6668 5.69558 34.3793 0.919922 25.1761Z" fill="white"/>
</svg>
