<svg width="258" height="60" viewBox="0 0 258 60" fill="none" xmlns="http://www.w3.org/2000/svg">
<g clip-path="url(#clip0_60_740)">
<path d="M61.3087 28.7375L64.5927 28.2375C65.327 28.1321 65.5378 27.7647 65.5378 27.3191C65.5378 26.2409 64.8035 25.3736 63.1207 25.3736C61.4379 25.3736 60.6254 26.3974 60.4928 27.6865L57.7085 27.0572C57.9465 24.8497 59.9421 22.877 63.0935 22.877C67.0336 22.877 68.5295 25.1116 68.5295 27.6593V34.0198C68.5295 35.1763 68.662 35.9382 68.6858 36.0708H65.8472C65.82 35.9926 65.7146 35.4654 65.7146 34.4416C65.1095 35.4144 63.8482 36.4654 61.7744 36.4654C59.0955 36.4654 57.4399 34.6253 57.4399 32.6014C57.4399 30.3157 59.1227 29.0538 61.3019 28.7375H61.3087ZM65.5378 30.7613V30.1831L62.2028 30.6831C61.2577 30.8395 60.4962 31.3667 60.4962 32.4178C60.4962 33.2851 61.1523 34.0742 62.3626 34.0742C64.0692 34.0742 65.5412 33.2579 65.5412 30.7613H65.5378Z" fill="#333333"/>
<path d="M74.4684 36.0708H71.4224V23.2714H74.3902V24.9789C75.2299 23.5061 76.7529 22.9041 78.174 22.9041C81.2982 22.9041 82.7974 25.1626 82.7974 27.9755V36.0708H79.7514V28.5027C79.7514 26.9245 79.0409 25.666 77.1235 25.666C75.3897 25.666 74.4718 27.0061 74.4718 28.6898V36.0742L74.4684 36.0708ZM72.9182 20.9857C72.9182 18.9347 74.1013 17.9619 75.6243 17.9619C76.3858 17.9619 76.9365 18.2238 77.4635 18.5401L77.7252 18.6966C78.1196 18.9347 78.4595 19.1422 78.8539 19.1422C79.3808 19.1422 79.6698 18.8021 79.6698 17.9857H81.6654V18.4313C81.6654 20.4823 80.5095 21.5061 78.9865 21.5061C78.225 21.5061 77.647 21.217 77.1201 20.9007L76.8583 20.7442C76.464 20.5061 76.124 20.3225 75.7297 20.3225C75.2027 20.3225 74.941 20.6388 74.941 21.4517H72.9454L72.9182 20.9789V20.9857Z" fill="#333333"/>
<path d="M97.9767 29.6558C97.9767 33.598 95.1652 36.462 91.3305 36.462C87.4957 36.462 84.7114 33.598 84.7114 29.6558C84.7114 25.7137 87.5229 22.8735 91.3305 22.8735C95.138 22.8735 97.9767 25.7375 97.9767 29.6558ZM94.9034 29.6558C94.9034 27.0028 93.2206 25.6354 91.3305 25.6354C89.4403 25.6354 87.7575 27.0028 87.7575 29.6558C87.7575 32.3089 89.4641 33.7307 91.3305 33.7307C93.1968 33.7307 94.9034 32.3361 94.9034 29.6558Z" fill="#333333"/>
<path d="M101.655 31.8633C101.761 33.0198 102.627 34.0436 104.256 34.0436C105.517 34.0436 106.173 33.3599 106.173 32.5708C106.173 31.8871 105.701 31.3633 104.677 31.1524L102.787 30.7307C100.526 30.2307 99.3468 28.7579 99.3468 26.9994C99.3468 24.7647 101.397 22.8735 104.048 22.8735C107.621 22.8735 108.777 25.1865 108.988 26.4484L106.415 27.1831C106.309 26.4484 105.758 25.2647 104.052 25.2647C102.974 25.2647 102.213 25.9484 102.213 26.7375C102.213 27.4212 102.712 27.9212 103.501 28.0776L105.446 28.4722C107.863 28.9994 109.124 30.4688 109.124 32.3633C109.124 34.2579 107.547 36.462 104.29 36.462C100.584 36.462 99.1666 34.0436 99.0103 32.598L101.662 31.8633H101.655Z" fill="#333333"/>
<path d="M161.261 36.3497V18.1694H164.715V24.6524C165.296 23.7171 166.72 22.8633 168.645 22.8633C172.442 22.8633 174.631 25.8293 174.631 29.7273C174.631 33.6252 172.204 36.6694 168.512 36.6694C166.717 36.6694 165.347 35.8667 164.66 34.7477V36.3497H161.257H161.261ZM167.907 26.0436C166.139 26.0436 164.664 27.3531 164.664 29.7545C164.664 32.1558 166.139 33.4926 167.907 33.4926C169.675 33.4926 171.126 32.1558 171.126 29.7545C171.126 27.3531 169.702 26.0436 167.907 26.0436Z" fill="#333333"/>
<path d="M179.432 28.7476L182.624 28.2681C183.362 28.1626 183.6 27.7885 183.6 27.3327C183.6 26.3973 182.889 25.6218 181.41 25.6218C179.931 25.6218 179.037 26.6116 178.932 27.7612L175.821 27.0946C176.032 25.0368 177.905 22.7646 181.386 22.7646C185.5 22.7646 187.03 25.1184 187.03 27.7612V34.2306C187.03 34.9245 187.108 35.8599 187.19 36.3157H183.97C183.892 35.9687 183.838 35.2476 183.838 34.7374C183.178 35.7783 181.937 36.6898 180.013 36.6898C177.242 36.6898 175.556 34.7919 175.556 32.734C175.556 30.3837 177.27 29.0708 179.432 28.751V28.7476ZM183.6 30.9925V30.4041L180.673 30.8599C179.775 30.9925 179.065 31.5027 179.065 32.5163C179.065 33.2919 179.619 34.0402 180.754 34.0402C182.23 34.0402 183.603 33.3191 183.603 30.9925H183.6Z" fill="#333333"/>
<path d="M192.486 36.4109H188.978V22.9551H192.381V24.8089C193.173 23.4347 194.726 22.8157 196.127 22.8157C199.346 22.8157 200.822 25.1592 200.822 28.064V36.4109H197.313V28.683C197.313 27.2034 196.603 26.0436 194.913 26.0436C193.383 26.0436 192.486 27.2544 192.486 28.7885V36.4075V36.4109Z" fill="#333333"/>
<path d="M210.184 26.717C209.79 26.6353 209.447 26.6081 209.13 26.6081C207.335 26.6081 205.782 27.4959 205.782 30.3496V36.4074H202.273V22.9517H205.676V25.0231C206.469 23.2748 208.26 22.9517 209.368 22.9517C209.657 22.9517 209.923 22.9789 210.184 23.0061V26.717Z" fill="#333333"/>
<path d="M223.11 32.4211C222.45 34.6626 220.393 36.5368 217.201 36.5368C213.642 36.5368 210.5 33.9755 210.5 29.598C210.5 25.4551 213.56 22.7646 216.882 22.7646C220.89 22.7646 223.29 25.3259 223.29 29.4925C223.29 29.9925 223.239 30.5232 223.239 30.5742H213.954C214.033 32.2885 215.484 33.53 217.225 33.53C218.86 33.53 219.758 32.7102 220.179 31.5504L223.106 32.4211H223.11ZM219.839 28.1728C219.785 26.8803 218.942 25.6116 216.939 25.6116C215.121 25.6116 214.118 26.9823 214.039 28.1728H219.843H219.839Z" fill="#333333"/>
<path d="M227.25 36.0096C227.488 37.4348 228.621 38.4654 230.283 38.4654C232.499 38.4654 233.737 37.3565 233.737 34.8497V33.9008C233.21 34.7443 231.996 35.564 230.123 35.564C226.669 35.564 224.082 32.8973 224.082 29.2579C224.082 25.8259 226.56 22.9246 230.123 22.9246C232.18 22.9246 233.366 23.8225 233.815 24.6933V22.9314H237.191V34.7477C237.191 38.3089 235.267 41.5572 230.385 41.5572C226.826 41.5572 224.449 39.3395 224.082 36.8599L227.247 36.0164L227.25 36.0096ZM233.791 29.2545C233.791 27.2477 232.421 25.9824 230.732 25.9824C229.042 25.9824 227.621 27.2477 227.621 29.2545C227.621 31.2613 228.913 32.5538 230.732 32.5538C232.55 32.5538 233.791 31.2613 233.791 29.2545Z" fill="#333333"/>
<path d="M239.169 36.4177V22.9177H242.678V36.4177H239.169Z" fill="#333333"/>
<path d="M258 29.649C258 33.6354 255.073 36.5367 251.194 36.5367C247.315 36.5367 244.388 33.6354 244.388 29.649C244.388 25.6626 247.315 22.7612 251.194 22.7612C255.073 22.7612 258 25.6388 258 29.649ZM254.495 29.649C254.495 27.1966 252.914 25.9551 251.197 25.9551C249.48 25.9551 247.899 27.1966 247.899 29.649C247.899 32.1014 249.48 33.3429 251.197 33.3429C252.914 33.3429 254.495 32.1014 254.495 29.649Z" fill="#333333"/>
<path d="M146.921 19.3328L145.983 18.394L135.308 29.0709L124.637 18.394L123.699 19.3328L134.37 30.0097L123.699 40.6866L124.637 41.6287L135.308 30.9485L145.983 41.6287L146.921 40.6866L136.25 30.0097L146.921 19.3328Z" fill="#333333"/>
<path d="M31.9635 45.0095C40.2435 45.0095 46.9557 38.2938 46.9557 30.0095C46.9557 21.7252 40.2435 15.0095 31.9635 15.0095C23.6835 15.0095 16.9712 21.7252 16.9712 30.0095C16.9712 38.2938 23.6835 45.0095 31.9635 45.0095Z" fill="#FF4D00"/>
<path d="M0.459473 30.0095C8.74091 30.0095 15.4517 23.2952 15.4517 15.0095C15.4517 6.72381 8.74091 0.00952148 0.459473 0.00952148V30.0095Z" fill="#FF4D00"/>
<path d="M0.459473 60.0095C8.74091 60.0095 15.4517 53.2952 15.4517 45.0095C15.4517 36.7238 8.74091 30.0095 0.459473 30.0095V60.0095Z" fill="#FF4D00"/>
</g>
<defs>
<clipPath id="clip0_60_740">
<rect width="257.541" height="60" fill="white" transform="translate(0.459473 0.00952148)"/>
</clipPath>
</defs>
</svg>
